P3
80 45
255
205 226 255
204 226 255
204 226 255
204 226 255
203 226 255
203 225 255
203 225 255
202 225 255
202 225 255
202 225 255
202 225 255
201 224 255
201 224 255
200 224 255
200 224 255
200 224 255
199 224 255
199 223 255
199 223 255
198 223 255
198 223 255
198 223 255
197 222 255
197 222 255
197 222 255
196 222 255
196 222 255
196 222 255
195 221 255
195 221 255
195 221 255
195 221 255
194 221 255
194 221 255
194 221 255
194 221 255
194 221 255
194 221 255
194 220 255
194 220 255
194 220 255
194 221 255
194 221 255
194 221 255
194 221 255
194 221 255
194 221 255
194 221 255
195 221 255
195 221 255
195 221 255
195 221 255
196 222 255
196 222 255
196 222 255
197 222 255
197 222 255
197 222 255
198 223 255
198 223 255
198 223 255
199 223 255
199 223 255
199 224 255
200 224 255
200 224 255
200 224 255
201 224 255
201 224 255
202 225 255
202 225 255
202 225 255
202 225 255
203 225 255
203 226 255
203 226 255
204 226 255
204 226 255
204 226 255
204 226 255
205 227 255
205 226 255
205 226 255
204 226 255
204 226 255
204 226 255
203 226 255
203 226 255
203 225 255
202 225 255
202 225 255
202 225 255
202 225 255
201 225 255
201 224 255
200 224 255
200 224 255
200 224 255
199 224 255
199 223 255
199 223 255
198 223 255
198 223 255
198 223 255
197 222 255
197 222 255
197 222 255
196 222 255
196 222 255
196 222 255
196 222 255
195 221 255
176 202 241
162 189 231
150 177 222
145 171 218
169 196 236
188 215 251
194 221 255
194 221 255
194 221 255
194 221 255
194 221 255
195 221 255
195 221 255
195 221 255
195 221 255
195 221 255
195 221 255
196 222 255
196 222 255
196 222 255
196 222 255
197 222 255
197 222 255
197 222 255
198 223 255
198 223 255
198 223 255
199 223 255
199 223 255
199 224 255
200 224 255
200 224 255
201 224 255
201 224 255
201 224 255
202 225 255
202 225 255
202 225 255
203 225 255
203 225 255
203 226 255
203 226 255
204 226 255
204 226 255
204 226 255
205 226 255
205 226 255
205 227 255
206 227 255
206 227 255
205 227 255
205 227 255
205 226 255
204 226 255
204 226 255
204 226 255
204 226 255
203 226 255
203 225 255
203 225 255
202 225 255
202 225 255
202 225 255
201 225 255
201 224 255
201 224 255
200 224 255
200 224 255
200 224 255
199 223 255
199 223 255
199 223 255
198 223 255
198 223 255
198 223 255
197 222 255
197 222 255
197 222 255
156 181 222
95 125 182
62 98 158
62 99 170
62 98 165
62 98 160
62 98 165
64 100 165
123 150 202
165 191 228
195 221 255
195 221 255
195 221 255
195 221 255
195 221 255
196 221 255
196 222 255
196 222 255
196 222 255
196 222 255
197 222 255
197 222 255
197 222 255
198 223 255
198 223 255
198 223 255
198 223 255
199 223 255
199 223 255
199 224 255
200 224 255
200 224 255
201 224 255
201 224 255
201 225 255
202 225 255
202 225 255
202 225 255
203 225 255
203 225 255
203 226 255
204 226 255
204 226 255
204 226 255
204 226 255
205 226 255
205 227 255
205 227 255
206 227 255
206 227 255
206 227 255
206 227 255
206 227 255
206 227 255
205 227 255
205 227 255
205 226 255
205 226 255
204 226 255
204 226 255
204 226 255
203 226 255
203 225 255
203 225 255
202 225 255
202 225 255
202 225 255
201 225 255
201 224 255
201 224 255
200 224 255
200 224 255
200 224 255
199 224 255
199 223 255
199 223 255
198 223 255
198 223 255
192 217 252
120 147 194
62 98 159
62 98 163
62 97 154
62 98 162
62 98 158
62 98 159
62 98 158
63 99 164
63 99 164
65 101 167
140 167 211
195 221 255
196 222 255
196 222 255
196 222 255
196 222 255
197 222 255
197 222 255
197 222 255
197 222 255
197 223 255
198 223 255
198 223 255
198 223 255
199 223 255
199 223 255
199 224 255
200 224 255
200 224 255
200 224 255
201 224 255
201 224 255
201 225 255
202 225 255
202 225 255
202 225 255
203 225 255
203 225 255
203 226 255
204 226 255
204 226 255
204 226 255
205 226 255
205 226 255
205 227 255
205 227 255
206 227 255
206 227 255
206 227 255
206 227 255
207 228 255
207 228 255
207 227 255
206 227 255
206 227 255
206 227 255
206 227 255
205 227 255
205 227 255
205 226 255
204 226 255
204 226 255
204 226 255
203 226 255
203 226 255
203 225 255
203 225 255
202 225 255
202 225 255
202 225 255
201 224 255
201 224 255
200 224 255
200 224 255
200 224 255
199 224 255
199 223 255
192 216 250
102 131 183
62 98 158
62 98 160
61 96 146
61 97 150
63 98 155
62 98 159
61 96 152
62 98 160
61 97 156
61 96 151
61 96 151
63 98 164
129 156 204
194 219 253
197 222 255
197 222 255
197 222 255
197 222 255
198 223 255
198 223 255
198 223 255
198 223 255
199 223 255
199 223 255
199 223 255
200 224 255
200 224 255
200 224 255
201 224 255
201 224 255
201 224 255
201 225 255
202 225 255
202 225 255
203 225 255
203 225 255
203 226 255
204 226 255
204 226 255
204 226 255
204 226 255
205 226 255
205 227 255
205 227 255
206 227 255
206 227 255
206 227 255
206 227 255
207 227 255
207 228 255
207 228 255
208 228 255
208 228 255
207 228 255
207 228 255
207 228 255
207 227 255
206 227 255
206 227 255
206 227 255
206 227 255
205 227 255
205 227 255
205 226 255
204 226 255
204 226 255
204 226 255
203 226 255
203 226 255
203 225 255
202 225 255
202 225 255
202 225 255
201 225 255
201 224 255
201 224 255
200 224 255
200 224 255
128 154 202
61 97 149
62 97 155
62 97 155
62 97 153
62 97 148
62 97 149
62 97 148
61 96 151
62 97 151
62 97 152
62 97 152
62 98 156
62 97 156
63 98 160
138 163 202
198 223 255
198 223 255
198 223 255
198 223 255
199 223 255
199 223 255
199 223 255
199 223 255
200 224 255
200 224 255
200 224 255
200 224 255
201 224 255
201 224 255
201 225 255
202 225 255
202 225 255
202 225 255
203 225 255
203 225 255
203 226 255
204 226 255
204 226 255
204 226 255
205 226 255
205 227 255
205 227 255
206 227 255
206 227 255
206 227 255
206 227 255
207 227 255
207 228 255
207 228 255
207 228 255
208 228 255
208 228 255
209 228 255
208 228 255
208 228 255
208 228 255
208 228 255
207 228 255
207 228 255
207 228 255
207 227 255
206 227 255
206 227 255
206 227 255
206 227 255
205 227 255
205 226 255
205 226 255
204 226 255
204 226 255
204 226 255
203 226 255
203 225 255
203 225 255
202 225 255
202 225 255
202 225 255
201 225 255
183 207 241
62 97 152
62 97 152
61 96 147
62 97 151
61 95 130
60 94 140
61 96 136
60 95 139
61 96 144
63 98 158
62 97 149
61 96 146
61 96 145
62 97 157
62 97 153
62 97 157
182 206 241
199 223 255
199 223 255
199 223 255
199 224 255
200 224 255
200 224 255
200 224 255
200 224 255
201 224 255
201 224 255
201 225 255
202 225 255
202 225 255
202 225 255
203 225 255
203 225 255
203 226 255
204 226 255
204 226 255
204 226 255
205 226 255
205 226 255
205 227 255
205 227 255
206 227 255
206 227 255
206 227 255
207 227 255
207 228 255
207 228 255
207 228 255
208 228 255
208 228 255
208 228 255
208 228 255
209 228 255
209 229 255
209 229 255
209 229 255
209 229 255
208 228 255
208 228 255
208 228 255
208 228 255
207 228 255
207 228 255
207 228 255
207 227 255
206 227 255
206 227 255
206 227 255
205 227 255
205 227 255
205 226 255
204 226 255
204 226 255
204 226 255
204 226 255
203 226 255
203 225 255
203 225 255
202 225 255
136 161 197
62 98 156
61 96 144
62 97 148
61 97 144
61 96 139
61 96 144
61 95 142
61 96 138
61 96 142
60 95 128
62 97 151
61 96 149
62 96 143
61 96 148
61 95 140
61 96 151
93 122 170
198 222 254
200 224 255
200 224 255
201 224 255
201 224 255
201 224 255
201 224 255
201 225 255
202 225 255
202 225 255
202 225 255
203 225 255
203 225 255
203 226 255
204 226 255
204 226 255
204 226 255
205 226 255
205 226 255
205 227 255
205 227 255
206 227 255
206 227 255
206 227 255
207 227 255
207 228 255
207 228 255
207 228 255
208 228 255
208 228 255
208 228 255
208 228 255
209 229 255
209 229 255
209 229 255
209 229 255
210 229 255
210 229 255
210 229 255
209 229 255
209 229 255
209 229 255
209 229 255
209 228 255
208 228 255
208 228 255
208 228 255
207 228 255
207 228 255
207 228 255
207 227 255
206 227 255
206 227 255
206 227 255
205 227 255
205 227 255
205 226 255
205 226 255
204 226 255
204 226 255
204 226 255
201 224 254
78 109 163
62 98 153
61 97 152
59 94 123
60 95 135
61 96 146
61 96 141
60 95 132
61 96 141
62 96 143
60 94 130
61 96 136
61 95 139
62 96 148
61 96 146
61 96 147
60 93 128
60 94 141
166 190 226
201 225 255
201 225 255
202 225 255
202 225 255
202 225 255
202 225 255
203 225 255
203 225 255
203 225 255
203 226 255
204 226 255
204 226 255
204 226 255
205 226 255
205 227 255
205 227 255
205 227 255
206 227 255
206 227 255
206 227 255
207 227 255
207 228 255
207 228 255
208 228 255
208 228 255
208 228 255
208 228 255
209 228 255
209 229 255
209 229 255
209 229 255
209 229 255
210 229 255
210 229 255
210 229 255
211 230 255
211 230 255
210 230 255
210 229 255
210 229 255
206 225 251
202 221 248
199 218 245
198 218 246
196 216 244
192 213 241
196 217 245
199 220 247
198 219 247
204 224 252
207 228 255
207 228 255
207 228 255
207 227 255
206 227 255
206 227 255
206 227 255
205 227 255
205 227 255
205 226 255
193 215 247
60 95 153
61 95 149
61 96 142
60 95 140
61 96 142
61 96 134
61 95 135
59 94 129
61 95 132
61 95 139
59 93 120
61 95 139
59 93 117
60 93 128
59 93 132
60 93 134
61 94 142
62 96 148
121 146 191
202 225 255
203 225 255
203 225 255
203 225 255
203 226 255
203 226 255
204 226 255
204 226 255
204 226 255
204 226 255
205 226 255
205 227 255
205 227 255
206 227 255
206 227 255
206 227 255
206 227 255
207 228 255
207 228 255
207 227 253
204 221 240
201 217 231
198 210 217
195 205 206
193 201 195
191 199 188
196 206 204
200 212 219
202 215 224
205 219 234
210 229 255
210 229 255
210 230 255
211 230 255
211 230 255
211 230 255
205 223 248
197 216 242
188 208 234
179 201 229
177 199 228
175 198 228
173 197 228
172 196 228
171 196 228
170 195 228
169 195 228
169 195 228
169 195 228
170 196 228
174 199 230
181 204 234
191 213 242
202 223 251
207 228 255
207 228 255
207 227 255
206 227 255
206 227 255
206 227 255
193 214 244
61 95 155
60 94 143
60 94 135
59 93 125
62 96 141
60 94 127
59 94 121
59 93 114
60 94 129
59 93 124
60 94 131
60 94 132
59 93 130
59 91 121
59 92 119
61 95 141
59 93 137
60 93 144
67 98 152
203 226 255
204 226 255
204 226 255
204 226 255
204 226 255
204 226 255
205 226 255
205 227 255
205 227 255
206 227 255
206 227 255
206 227 255
206 227 255
207 227 255
207 228 255
207 228 255
202 218 234
191 201 195
183 187 163
174 172 121
170 169 114
169 169 114
169 169 114
169 169 114
170 169 114
171 170 114
172 170 114
173 171 114
175 172 114
176 172 114
179 175 118
188 187 155
197 204 198
207 221 236
211 229 253
184 203 230
181 201 228
178 200 228
176 199 228
174 198 228
173 197 228
171 196 228
170 195 228
169 195 228
167 194 228
166 194 228
165 193 228
165 193 228
164 192 228
164 192 228
164 192 228
164 193 228
166 193 228
169 195 228
176 200 232
195 216 245
205 226 253
208 228 255
207 228 255
207 228 255
175 196 230
60 94 148
60 94 145
60 94 135
60 95 134
59 94 126
60 95 134
59 93 117
60 95 130
60 94 126
60 94 126
60 94 125
60 95 134
60 94 133
60 94 128
59 93 128
59 92 124
59 91 124
60 93 137
60 92 138
194 216 247
205 226 255
205 227 255
205 227 255
205 227 255
206 227 255
206 227 255
206 227 255
206 227 255
207 227 255
207 228 255
207 228 255
207 228 255
204 221 241
192 201 196
175 175 131
168 169 114
166 167 114
165 167 114
164 167 114
164 167 114
164 167 114
165 167 114
165 167 114
166 168 114
167 168 114
169 169 114
170 169 114
171 170 114
173 170 114
174 171 114
176 172 114
178 173 114
180 174 114
186 181 133
180 201 228
178 200 228
176 199 228
174 198 228
173 197 228
172 196 228
170 196 228
169 195 228
168 194 228
167 194 228
166 193 228
165 193 228
164 192 228
163 192 228
162 192 228
162 191 228
162 191 228
162 191 228
163 192 228
164 192 228
167 194 228
173 198 230
189 211 240
206 226 253
208 228 255
192 212 243
58 92 147
59 93 141
60 94 136
59 93 134
58 91 121
59 92 118
59 93 130
59 93 119
60 94 131
58 91 117
59 93 120
60 93 123
58 90 114
59 91 112
59 91 122
59 91 129
61 94 131
57 89 115
59 90 138
189 210 241
206 227 255
206 227 255
207 227 255
207 228 255
207 228 255
207 228 255
207 228 255
208 228 255
208 228 255
208 228 255
207 227 252
188 193 177
171 170 116
167 168 114
164 167 114
163 166 114
162 166 114
162 166 114
162 166 114
162 166 114
163 166 114
164 166 114
165 167 114
166 167 114
167 168 114
168 168 114
169 169 114
170 169 114
172 170 114
173 171 114
174 171 114
176 172 114
178 173 114
180 174 114
179 200 228
177 199 228
176 199 228
175 198 228
173 197 228
172 197 228
171 196 228
170 195 228
169 195 228
168 194 228
167 194 228
166 193 228
165 193 228
164 192 228
163 192 228
162 192 228
162 191 228
162 191 228
162 191 228
162 191 228
163 192 228
165 193 228
166 193 227
157 180 213
198 218 246
207 227 254
63 93 147
57 90 128
58 91 128
58 92 116
56 89 108
59 92 116
59 93 120
57 90 113
58 92 117
58 92 124
58 91 109
58 91 118
58 90 107
58 90 113
58 91 121
59 91 114
57 87 118
58 88 123
58 90 126
200 220 248
208 228 255
208 228 255
208 228 255
208 228 255
208 228 255
208 228 255
209 229 255
209 229 255
209 229 255
198 210 216
175 175 127
168 168 114
165 167 114
163 166 114
162 166 114
162 166 114
162 166 114
162 166 114
162 166 114
163 166 114
164 166 114
165 167 114
166 167 114
167 168 114
168 168 114
169 169 114
170 169 114
171 170 114
172 170 114
173 171 114
175 171 114
176 172 114
177 173 114
179 173 114
179 200 228
178 200 228
177 199 228
176 199 228
175 198 228
174 197 228
173 197 228
172 196 228
171 196 228
170 195 228
169 195 228
168 194 228
167 194 228
166 193 228
165 193 228
164 193 228
164 192 228
163 192 228
163 192 228
163 192 228
163 192 228
164 192 228
80 108 151
54 85 147
62 88 142
149 167 201
107 127 169
56 88 134
57 90 129
57 89 106
58 91 114
58 92 113
57 90 113
58 91 109
58 91 103
58 91 122
58 91 108
56 89 103
57 89 105
57 89 104
59 91 122
56 87 105
57 87 109
55 84 105
69 96 124
207 227 254
209 229 255
209 229 255
209 229 255
209 229 255
210 229 255
210 229 255
210 229 255
210 228 253
195 203 196
172 170 114
168 168 114
165 167 114
164 166 114
163 166 114
163 166 114
163 166 114
163 166 114
164 166 114
164 167 114
165 167 114
166 167 114
167 168 114
168 168 114
169 169 114
169 169 114
171 170 114
172 170 114
173 170 114
174 171 114
175 171 114
176 172 114
177 172 114
178 173 114
179 174 114
181 201 228
180 201 228
179 200 228
178 200 228
177 199 228
176 199 228
175 198 228
174 198 228
173 197 228
172 197 228
171 196 228
170 196 228
169 195 228
169 195 228
168 194 228
167 194 228
167 194 228
166 193 228
166 193 228
165 193 228
165 193 228
164 192 227
56 87 128
52 82 122
50 79 128
45 72 126
58 77 121
52 82 122
56 87 118
55 87 112
57 90 106
58 91 117
56 89 98
57 90 95
59 91 116
57 90 102
56 88 102
57 89 105
57 89 111
56 88 94
55 85 96
58 89 108
58 90 115
55 85 101
115 136 155
210 229 255
210 229 255
210 230 255
211 230 255
211 230 255
211 230 255
211 230 255
211 230 254
189 191 166
173 171 114
169 169 114
167 168 114
166 167 114
165 167 114
165 167 114
165 167 114
165 167 114
166 167 114
166 168 114
167 168 114
168 168 114
169 169 114
170 169 114
170 169 114
171 170 114
172 170 114
173 171 114
174 171 114
175 171 114
176 172 114
177 172 114
178 173 114
179 173 114
180 174 114
181 174 114
182 202 228
182 202 228
181 201 228
180 201 228
179 200 228
178 200 228
178 200 228
177 199 228
176 199 228
175 198 228
174 198 228
174 197 228
173 197 228
172 197 228
171 196 228
171 196 228
170 195 228
170 195 228
169 195 228
169 195 228
168 195 228
168 195 228
81 107 140
53 83 125
51 81 123
48 76 116
40 65 107
39 64 100
53 84 102
52 82 96
54 86 104
57 89 105
55 87 103
57 90 96
56 88 106
55 86 89
57 89 99
55 86 93
58 89 112
57 87 107
54 84 76
54 83 91
53 81 89
56 86 100
160 179 201
212 230 255
212 230 255
212 230 255
212 230 255
212 230 255
212 231 255
213 231 255
198 204 196
176 172 114
167 165 111
151 152 105
169 169 114
169 169 114
169 169 114
169 169 114
169 169 114
169 169 114
170 169 114
170 169 114
171 170 114
171 170 114
172 170 114
173 171 114
174 171 114
175 171 114
175 172 114
176 172 114
177 172 114
178 173 114
178 173 114
179 173 114
180 174 114
181 174 114
182 175 114
183 175 114
185 203 228
184 203 228
183 203 228
183 202 228
182 202 228
181 201 228
181 201 228
180 201 228
179 200 228
179 200 228
178 200 228
177 199 228
177 199 228
176 199 228
175 198 228
175 198 228
174 198 228
174 197 228
173 197 228
173 197 228
173 197 228
172 197 228
133 156 191
52 82 101
50 78 100
48 76 111
41 66 92
36 57 85
48 76 97
52 83 95
54 85 98
54 85 92
56 89 96
54 85 92
57 89 102
55 87 96
56 89 89
54 84 75
56 87 93
54 83 88
52 81 76
53 83 73
53 83 71
72 97 106
207 225 249
213 231 255
213 231 255
213 231 255
214 231 255
214 231 255
214 231 255
206 217 224
181 174 114
138 138 95
55 73 65
54 73 68
123 127 91
172 170 114
172 170 114
173 170 114
173 171 114
173 171 114
174 171 114
174 171 114
175 171 114
175 172 114
176 172 114
176 172 114
177 173 114
178 173 114
178 173 114
179 173 114
180 174 114
181 174 114
181 174 114
182 175 114
183 175 114
183 175 114
184 176 114
185 176 114
187 205 228
187 204 228
186 204 228
186 204 228
185 203 228
184 203 228
184 203 228
184 203 228
183 202 228
182 202 228
182 202 228
181 202 228
181 201 228
180 201 228
180 201 228
179 200 228
179 200 228
178 200 228
178 200 228
178 199 228
177 199 228
177 199 228
174 196 224
83 107 129
51 80 105
50 78 102
47 73 96
41 65 86
31 51 62
48 76 76
51 80 85
50 80 78
54 85 85
53 84 84
54 85 85
55 86 80
56 87 102
56 87 87
54 84 77
53 82 83
54 84 75
54 83 78
53 80 82
178 195 214
215 232 255
215 232 255
215 232 255
215 232 255
215 232 255
215 232 255
215 231 253
192 189 151
151 147 96
52 68 55
52 70 54
53 69 55
103 110 80
177 172 114
177 172 114
177 172 114
178 173 114
178 173 114
179 173 114
179 173 114
179 173 114
180 174 114
180 174 114
181 174 114
181 174 114
182 175 114
182 175 114
183 175 114
183 175 114
184 176 114
184 176 114
185 176 114
185 176 114
186 177 114
186 177 114
187 177 114
190 206 228
189 206 228
189 206 228
189 206 228
188 205 228
188 205 228
187 205 228
187 205 228
187 204 228
186 204 228
186 204 228
185 204 228
185 203 228
185 203 228
184 203 228
184 203 228
184 203 228
183 202 228
183 202 228
183 202 228
182 202 228
182 202 228
182 202 228
172 192 219
59 86 99
49 78 88
46 73 79
42 66 63
34 54 51
93 107 108
49 77 75
49 78 66
52 82 80
50 80 69
53 84 64
53 83 76
54 85 75
53 83 62
53 83 71
51 80 58
55 85 81
52 82 62
121 140 146
216 233 255
216 233 255
216 233 255
216 233 255
216 233 255
217 233 255
217 233 255
208 215 216
185 176 113
66 76 51
49 65 47
48 63 44
52 69 49
123 124 86
182 175 114
182 175 114
182 175 114
182 175 114
183 175 114
183 175 114
183 175 114
184 176 114
184 176 114
185 176 114
185 176 114
185 176 114
186 177 114
186 177 114
187 177 114
187 177 114
187 177 114
188 177 114
188 178 114
189 178 114
189 178 114
189 178 114
190 178 114
192 208 228
192 207 228
192 207 228
191 207 228
191 207 228
191 207 228
191 207 228
191 207 228
190 206 228
190 206 228
190 206 228
189 206 228
189 206 228
189 206 228
189 206 228
189 205 228
188 205 228
188 205 228
188 205 228
188 205 228
187 205 228
187 205 228
187 205 228
186 202 224
151 163 164
52 78 73
47 74 73
43 68 57
39 62 47
167 181 195
159 173 187
64 88 74
49 78 61
51 81 60
52 81 71
52 81 64
53 84 65
51 80 51
50 79 45
51 80 47
60 87 69
164 180 191
218 234 255
218 234 255
218 234 255
218 234 255
218 234 255
218 234 255
218 234 255
218 234 255
202 200 177
180 170 108
47 63 36
47 62 35
49 65 41
58 73 47
176 168 109
187 177 114
187 177 114
187 177 114
188 177 114
187 177 114
188 178 114
188 178 114
188 178 114
189 178 114
189 178 114
189 178 114
190 178 114
190 178 114
190 179 114
190 179 114
191 179 114
191 179 114
191 179 114
191 179 114
192 179 114
192 179 114
192 180 114
192 180 114
195 209 228
195 209 228
195 209 228
195 209 228
194 209 228
194 209 228
194 209 228
194 209 228
194 209 228
194 208 228
194 208 228
194 208 228
194 208 228
193 208 228
193 208 228
193 208 228
193 208 228
193 208 228
193 208 228
193 208 228
193 208 228
192 208 228
191 205 224
161 159 119
133 136 94
122 124 84
85 101 86
43 69 44
43 69 42
173 187 201
220 235 255
208 223 242
144 160 166
78 100 87
52 83 61
49 78 47
47 75 44
49 78 45
58 84 49
135 152 151
193 208 223
220 235 255
220 235 255
220 235 255
220 235 255
220 235 255
220 235 255
220 235 255
220 235 255
220 235 255
201 196 161
192 179 113
80 85 48
45 60 26
46 62 28
102 107 71
161 156 103
191 178 113
193 180 114
193 180 114
193 180 114
193 180 114
193 180 114
193 180 114
193 180 114
193 180 114
193 180 114
194 180 114
194 180 114
194 180 114
194 180 114
194 180 114
194 181 114
194 181 114
195 181 114
195 181 114
195 181 114
195 181 114
195 181 114
195 181 114
198 211 228
198 211 228
198 211 228
198 211 228
198 210 228
198 211 228
198 211 228
198 211 228
198 211 228
198 211 228
198 211 228
198 211 228
198 211 228
198 211 228
198 211 228
198 211 228
198 211 228
198 211 228
198 211 228
198 211 228
198 211 228
198 211 228
193 201 208
161 152 81
142 136 72
134 129 65
185 194 199
166 179 190
166 179 190
202 215 233
221 236 255
221 236 255
221 235 255
218 232 252
212 226 244
197 211 226
186 201 212
193 208 221
218 232 252
221 236 255
221 235 255
221 235 255
221 235 255
221 236 255
221 235 255
221 236 255
221 235 255
221 236 255
221 236 255
221 236 255
201 191 142
198 182 114
186 172 107
144 135 80
124 120 54
134 125 57
160 151 79
189 175 106
198 182 114
198 182 114
198 182 114
198 182 114
198 182 114
198 182 114
198 182 114
198 182 114
198 182 114
198 182 114
198 182 114
198 182 114
198 182 114
198 182 114
198 182 114
198 182 114
198 182 114
198 182 114
198 182 114
198 182 114
198 182 114
198 182 114
190 203 195
189 203 195
187 201 188
184 199 178
180 196 163
181 197 168
174 191 146
177 194 156
175 192 146
174 191 142
172 190 135
165 184 104
166 184 107
166 184 99
169 187 118
164 183 94
164 183 99
163 182 82
158 178 68
159 179 60
161 179 72
160 179 72
156 175 45
131 128 0
122 116 0
128 127 0
158 176 60
163 181 97
164 183 104
191 205 191
223 236 255
223 236 255
223 236 255
223 236 255
223 236 255
223 236 255
223 236 255
223 236 255
223 236 255
223 236 255
223 236 255
223 236 255
223 236 255
223 236 255
223 236 255
223 236 255
223 236 255
223 236 255
223 236 255
223 236 255
194 189 145
168 161 57
161 156 45
155 151 30
129 126 0
115 112 0
132 129 0
155 152 30
161 156 37
157 154 32
158 154 34
163 157 45
161 156 41
163 158 47
163 157 45
168 161 58
166 160 57
168 161 58
170 162 59
170 162 60
172 164 66
182 171 85
174 166 71
178 168 79
177 168 77
183 172 87
184 173 90
185 173 90
190 176 98
194 179 104
155 176 0
155 177 0
154 175 0
154 175 0
155 177 0
157 177 0
156 177 0
156 176 0
154 175 0
155 176 0
155 176 0
156 177 0
154 175 0
157 177 0
155 176 0
154 175 0
153 174 0
152 173 0
153 173 0
151 171 0
148 167 0
145 162 0
142 153 0
134 140 0
114 110 0
126 133 0
146 163 0
148 168 0
153 173 0
184 202 155
215 230 227
213 228 221
209 225 209
203 220 186
206 223 199
203 220 189
204 221 189
201 219 184
202 219 189
200 218 177
205 222 196
206 222 198
203 220 189
201 219 184
202 219 184
206 223 203
205 221 198
208 224 207
210 225 212
212 227 217
178 184 133
153 150 0
148 144 0
138 136 0
127 122 0
124 118 0
129 125 0
142 140 0
149 146 0
149 147 0
150 148 0
149 147 0
152 149 0
156 152 0
154 151 0
153 152 0
154 151 0
155 151 0
154 152 0
157 153 0
151 149 0
153 151 0
153 151 0
155 152 0
156 153 0
157 153 0
157 154 0
156 153 0
156 153 0
156 153 0
155 176 0
154 175 0
156 176 0
154 175 0
155 176 0
152 173 0
155 176 0
154 175 0
155 176 0
154 175 0
152 172 0
152 173 0
152 173 0
152 172 0
153 174 0
150 170 0
153 174 0
148 169 0
152 172 0
150 170 0
148 166 0
143 160 0
139 156 0
139 155 0
142 158 0
133 149 0
132 149 0
139 157 0
148 168 0
170 191 0
173 197 0
174 197 0
171 194 0
174 197 0
174 197 0
173 197 0
174 198 0
173 197 0
174 198 0
172 196 0
174 196 0
173 196 0
174 196 0
174 197 0
175 197 0
174 197 0
171 195 0
173 197 0
175 198 0
175 198 0
167 183 0
145 143 0
135 133 0
136 134 0
126 125 0
139 135 0
131 128 0
146 142 0
143 139 0
145 142 0
150 147 0
149 147 0
150 147 0
151 149 0
150 148 0
156 152 0
150 148 0
153 150 0
153 151 0
152 149 0
155 151 0
154 152 0
153 151 0
154 152 0
155 152 0
155 152 0
154 152 0
155 152 0
155 153 0
156 152 0
155 176 0
155 176 0
155 176 0
153 174 0
153 173 0
154 175 0
153 174 0
150 171 0
152 173 0
152 173 0
152 172 0
151 171 0
150 170 0
146 167 0
146 167 0
148 168 0
151 171 0
145 165 0
146 167 0
144 162 0
146 165 0
135 153 0
141 158 0
139 158 0
134 151 0
136 153 0
140 158 0
133 150 0
150 170 0
171 195 0
172 195 0
172 195 0
171 194 0
170 194 0
173 197 0
170 195 0
174 197 0
172 195 0
169 192 0
170 193 0
173 196 0
171 194 0
172 194 0
172 195 0
171 195 0
172 196 0
173 196 0
172 194 0
173 196 0
172 196 0
172 195 0
145 146 0
140 135 0
138 132 0
140 136 0
132 129 0
137 133 0
139 136 0
145 141 0
139 138 0
145 142 0
149 146 0
148 146 0
149 146 0
149 146 0
149 145 0
151 148 0
150 147 0
153 149 0
150 147 0
150 147 0
154 151 0
152 150 0
154 152 0
153 150 0
153 150 0
153 149 0
154 151 0
155 152 0
155 152 0
154 175 0
154 175 0
155 176 0
153 173 0
152 172 0
152 172 0
153 173 0
151 171 0
150 170 0
152 173 0
151 172 0
150 170 0
150 170 0
149 169 0
147 167 0
148 168 0
148 168 0
142 162 0
141 161 0
144 162 0
141 159 0
144 161 0
133 151 0
129 146 0
131 149 0
135 151 0
129 146 0
137 154 0
163 184 0
170 193 0
168 192 0
168 191 0
164 187 0
164 187 0
167 190 0
167 190 0
165 189 0
164 187 0
165 188 0
171 194 0
165 187 0
164 187 0
161 184 0
168 190 0
166 187 0
165 187 0
168 190 0
169 191 0
164 187 0
170 193 0
170 194 0
163 178 0
139 135 0
135 130 0
134 130 0
136 131 0
135 130 0
138 133 0
142 138 0
142 138 0
141 137 0
144 141 0
144 140 0
143 138 0
148 144 0
150 147 0
145 140 0
147 144 0
149 145 0
148 145 0
153 150 0
153 150 0
151 147 0
152 149 0
153 150 0
152 148 0
154 150 0
155 151 0
153 148 0
154 151 0
152 173 0
153 174 0
151 173 0
156 176 0
150 171 0
147 168 0
150 170 0
152 172 0
149 170 0
149 170 0
145 166 0
150 170 0
145 164 0
147 168 0
141 160 0
144 163 0
143 162 0
143 163 0
143 162 0
136 154 0
141 160 0
134 153 0
139 156 0
132 147 0
128 145 0
135 152 0
127 144 0
154 175 0
163 186 0
156 179 0
162 184 0
164 186 0
157 180 0
160 182 0
165 187 0
160 181 0
162 184 0
152 174 0
163 185 0
165 186 0
160 183 0
160 181 0
156 177 0
163 185 0
162 184 0
162 182 0
162 183 0
163 183 0
164 185 0
158 179 0
166 187 0
165 185 0
151 157 0
139 134 0
137 131 0
139 133 0
144 137 0
138 132 0
137 131 0
146 140 0
143 138 0
142 138 0
141 136 0
144 139 0
140 137 0
145 140 0
149 144 0
146 141 0
145 139 0
147 143 0
148 143 0
146 143 0
150 146 0
148 144 0
151 148 0
152 148 0
156 150 0
151 148 0
153 148 0
153 150 0
153 174 0
152 172 0
152 172 0
153 173 0
154 173 0
151 171 0
150 170 0
150 171 0
149 168 0
149 167 0
149 168 0
146 165 0
147 167 0
147 166 0
141 160 0
145 164 0
140 158 0
141 160 0
140 158 0
141 159 0
137 154 0
139 157 0
131 148 0
134 150 0
132 148 0
123 138 0
139 155 0
159 180 0
160 182 0
161 181 0
157 178 0
156 176 0
156 177 0
153 173 0
160 182 0
149 170 0
158 179 0
149 170 0
154 174 0
162 182 0
158 179 0
159 179 0
154 175 0
155 176 0
159 178 0
149 167 0
157 177 0
157 178 0
161 181 0
161 180 0
164 181 0
161 178 0
164 182 0
145 145 0
136 125 0
130 120 0
134 125 0
134 127 0
135 127 0
136 130 0
144 136 0
142 134 0
140 132 0
139 133 0
143 136 0
144 139 0
149 142 0
145 140 0
146 140 0
149 143 0
144 140 0
151 145 0
147 142 0
150 144 0
151 147 0
151 146 0
151 146 0
154 149 0
153 148 0
152 148 0
151 171 0
152 173 0
154 174 0
151 170 0
150 169 0
152 172 0
147 166 0
151 172 0
150 170 0
149 169 0
146 165 0
147 165 0
145 164 0
144 162 0
145 163 0
143 162 0
145 162 0
142 160 0
139 156 0
135 151 0
136 151 0
129 144 0
132 147 0
125 138 0
129 143 0
145 162 0
147 167 0
154 174 0
148 168 0
157 176 0
150 170 0
142 160 0
148 167 0
141 160 0
152 171 0
143 163 0
151 170 0
150 169 0
144 163 0
155 174 0
156 176 0
155 174 0
152 172 0
151 171 0
159 177 0
160 175 0
158 175 0
156 175 0
161 178 0
162 181 0
151 166 0
158 174 0
156 169 0
155 165 0
136 135 0
123 113 0
130 119 0
132 122 0
131 121 0
132 125 0
134 123 0
139 131 0
135 126 0
144 136 0
139 131 0
143 136 0
143 136 0
144 136 0
146 139 0
143 139 0
149 143 0
149 142 0
147 142 0
148 142 0
152 144 0
147 140 0
150 147 0
152 147 0
150 146 0
151 146 0
152 172 0
147 167 0
152 171 0
151 171 0
149 168 0
150 169 0
149 168 0
147 166 0
148 167 0
148 166 0
144 163 0
144 162 0
144 161 0
147 166 0
140 158 0
141 158 0
140 156 0
141 157 0
138 155 0
142 159 0
137 154 0
128 142 0
127 141 0
113 125 0
135 151 0
151 167 0
142 158 0
143 160 0
147 165 0
147 165 0
147 166 0
142 160 0
154 173 0
147 166 0
155 175 0
146 166 0
142 161 0
149 169 0
144 163 0
150 170 0
146 164 0
151 169 0
156 174 0
150 168 0
150 169 0
148 167 0
148 163 0
151 166 0
154 170 0
149 163 0
140 151 0
153 165 0
150 159 0
140 148 0
147 153 0
140 139 0
128 115 0
125 113 0
124 114 0
132 119 0
134 124 0
140 130 0
143 131 0
137 126 0
140 130 0
143 133 0
142 134 0
147 139 0
143 137 0
142 136 0
145 137 0
147 140 0
142 134 0
149 142 0
147 141 0
149 143 0
152 146 0
150 142 0
152 145 0
152 146 0
152 172 0
151 171 0
151 170 0
149 168 0
148 167 0
147 166 0
149 167 0
146 164 0
151 169 0
145 162 0
146 165 0
142 159 0
140 157 0
140 157 0
137 152 0
142 158 0
138 154 0
133 148 0
136 151 0
132 146 0
123 137 0
121 133 0
121 133 0
129 142 0
131 145 0
143 157 0
142 157 0
146 161 0
148 165 0
152 170 0
136 155 0
145 162 0
149 167 0
144 161 0
147 167 0
155 175 0
147 166 0
151 170 0
148 165 0
147 167 0
153 172 0
155 174 0
148 166 0
148 166 0
146 161 0
147 164 0
160 178 0
155 172 0
153 169 0
153 167 0
150 165 0
145 157 0
144 153 0
140 149 0
138 142 0
135 135 0
140 139 0
121 109 0
123 107 0
128 113 0
133 120 0
130 118 0
133 122 0
136 122 0
138 127 0
140 129 0
141 129 0
145 135 0
143 132 0
141 131 0
142 133 0
146 139 0
146 134 0
141 132 0
146 136 0
147 138 0
149 143 0
148 138 0
149 140 0
150 142 0
153 173 0
148 167 0
150 169 0
147 165 0
143 160 0
147 166 0
147 165 0
147 164 0
144 161 0
141 158 0
146 163 0
142 158 0
140 157 0
138 154 0
130 144 0
133 147 0
135 149 0
127 140 0
125 137 0
113 123 0
105 114 0
124 136 0
120 132 0
138 153 0
147 163 0
134 150 0
143 160 0
140 155 0
142 160 0
145 163 0
143 161 0
152 172 0
154 172 0
143 161 0
148 168 0
144 164 0
145 164 0
151 170 0
151 169 0
152 171 0
152 172 0
154 173 0
149 168 0
160 179 0
145 163 0
143 161 0
151 166 0
150 168 0
154 170 0
150 162 0
145 159 0
148 161 0
151 162 0
146 155 0
146 150 0
142 149 0
130 131 0
132 129 0
120 112 0
111 96 0
126 112 0
125 109 0
124 110 0
131 117 0
134 119 0
132 117 0
135 120 0
142 129 0
139 128 0
142 130 0
141 130 0
139 126 0
149 138 0
144 133 0
145 134 0
149 138 0
145 134 0
148 139 0
151 144 0
152 149 0
169 192 0
165 186 0
160 181 0
151 170 0
144 161 0
147 165 0
142 159 0
143 158 0
139 154 0
141 156 0
138 154 0
136 151 0
133 147 0
135 148 0
125 138 0
125 138 0
115 126 0
110 119 0
111 119 0
115 125 0
136 148 0
137 151 0
139 153 0
140 154 0
145 160 0
144 160 0
145 162 0
149 167 0
148 166 0
154 173 0
146 164 0
149 167 0
138 157 0
147 166 0
145 165 0
155 173 0
153 173 0
153 172 0
152 170 0
150 169 0
153 172 0
157 175 0
153 170 0
153 171 0
152 171 0
148 164 0
152 171 0
151 170 0
151 167 0
151 167 0
151 164 0
149 162 0
151 162 0
149 158 0
143 154 0
146 152 0
137 141 0
130 130 0
132 130 0
121 117 0
107 101 0
106 95 0
107 93 0
108 94 0
125 109 0
131 115 0
128 113 0
139 125 0
129 114 0
135 120 0
140 124 0
140 127 0
142 129 0
143 131 0
144 133 0
151 144 0
149 144 0
160 167 0
163 172 0
170 187 0
166 188 0
167 188 0
165 185 0
163 183 0
165 185 0
157 175 0
149 167 0
148 164 0
139 153 0
137 152 0
129 141 0
123 135 0
123 136 0
119 131 0
118 129 0
111 122 0
116 127 0
132 145 0
130 144 0
141 155 0
145 160 0
150 166 0
147 164 0
149 166 0
149 167 0
155 173 0
148 165 0
151 171 0
145 164 0
150 170 0
154 174 0
149 168 0
150 170 0
150 170 0
152 172 0
150 169 0
150 170 0
158 177 0
148 168 0
148 167 0
151 171 0
153 172 0
155 176 0
150 168 0
153 171 0
152 172 0
151 170 0
154 173 0
154 171 0
154 172 0
162 179 0
150 163 0
157 171 0
157 170 0
146 157 0
143 154 0
150 158 0
142 148 0
147 153 0
139 141 0
128 126 0
135 132 0
129 125 0
121 113 0
110 105 0
114 104 0
122 110 0
119 106 0
129 122 0
140 129 0
142 134 0
142 137 0
146 143 0
155 159 0
158 166 0
160 168 0
166 180 0
168 181 0
166 179 0
168 186 0
167 187 0
162 182 0
162 182 0
168 187 0
166 185 0
158 176 0
158 175 0
146 162 0
149 164 0
140 154 0
144 159 0
139 152 0
138 152 0
137 151 0
133 147 0
138 152 0
140 156 0
140 153 0
147 163 0
149 164 0
143 160 0
144 161 0
149 166 0
150 168 0
153 171 0
154 173 0
156 175 0
152 171 0
151 171 0
150 169 0
152 171 0
146 166 0
150 169 0
144 164 0
146 165 0
153 174 0
155 175 0
157 177 0
152 173 0
150 170 0
152 172 0
154 173 0
150 168 0
158 176 0
148 168 0
159 180 0
160 178 0
159 176 0
152 169 0
155 174 0
149 164 0
149 164 0
150 167 0
156 171 0
156 169 0
152 165 0
152 163 0
153 164 0
137 142 0
144 150 0
148 152 0
144 149 0
139 140 0
145 147 0
142 141 0
139 135 0
139 135 0
143 139 0
141 139 0
136 131 0
142 141 0
147 147 0
144 142 0
152 155 0
155 160 0
157 163 0
159 168 0
164 175 0
162 174 0
164 177 0
165 185 0
167 187 0
157 175 0
161 180 0
163 181 0
157 175 0
150 166 0
148 165 0
145 161 0
147 162 0
146 161 0
147 163 0
152 168 0
149 164 0
150 166 0
143 159 0
150 167 0
151 168 0
151 169 0
150 167 0
159 178 0
152 172 0
156 173 0
159 177 0
157 175 0
149 168 0
156 175 0
150 170 0
158 178 0
153 173 0
151 171 0
149 167 0
153 174 0
149 168 0
153 173 0
153 173 0
152 173 0
155 175 0
155 176 0
157 177 0
159 178 0
149 170 0
151 171 0
154 175 0
159 180 0
160 181 0
156 175 0
151 170 0
159 177 0
154 171 0
156 175 0
159 177 0
155 173 0
151 169 0
148 163 0
148 163 0
154 166 0
152 166 0
154 166 0
151 161 0
155 166 0
157 168 0
151 159 0
148 153 0
147 149 0
147 151 0
145 150 0
146 149 0
151 154 0
141 142 0
145 145 0
146 145 0
154 157 0
155 159 0
156 161 0
158 164 0
161 164 0
162 172 0
163 173 0
161 170 0
167 187 0
162 180 0
156 175 0
160 177 0
155 172 0
158 175 0
149 165 0
149 166 0
155 172 0
157 173 0
152 168 0
155 173 0
159 177 0
155 172 0
159 178 0
158 176 0
158 177 0
153 171 0
155 174 0
152 170 0
151 170 0
154 174 0
155 174 0
155 175 0
155 174 0
157 176 0
156 175 0
156 177 0
158 179 0
150 170 0
158 178 0
156 176 0
153 174 0
158 180 0
150 171 0
155 174 0
150 169 0
150 171 0
151 172 0
161 180 0
160 182 0
155 176 0
155 174 0
159 179 0
151 171 0
161 180 0
159 179 0
151 171 0
159 179 0
160 181 0
157 174 0
157 175 0
154 171 0
154 172 0
156 174 0
161 176 0
160 175 0
152 166 0
157 170 0
153 165 0
152 167 0
151 159 0
149 158 0
151 160 0
156 166 0
154 162 0
147 149 0
148 154 0
155 159 0
151 151 0
150 151 0
149 151 0
145 147 0
151 153 0
152 153 0
159 165 0
157 162 0
159 165 0
157 164 0
160 170 0
165 184 0
164 183 0
160 179 0
156 174 0
158 176 0
155 172 0
154 172 0
155 172 0
158 175 0
159 177 0
152 169 0
159 176 0
160 179 0
160 178 0
155 174 0
163 182 0
151 169 0
153 173 0
155 175 0
157 177 0
163 183 0
153 173 0
156 175 0
154 176 0
152 173 0
151 172 0
155 176 0
159 180 0
155 174 0
154 174 0
153 174 0
159 179 0
157 178 0
158 178 0
158 179 0
158 179 0
160 181 0
158 177 0
154 174 0
159 180 0
158 177 0
157 178 0
161 181 0
155 175 0
165 185 0
157 177 0
158 178 0
161 180 0
160 180 0
155 174 0
162 182 0
153 171 0
158 179 0
161 178 0
161 177 0
159 175 0
158 176 0
155 173 0
154 168 0
156 169 0
155 168 0
154 168 0
156 169 0
154 164 0
155 166 0
152 162 0
155 166 0
158 168 0
148 157 0
150 154 0
157 166 0
153 160 0
151 157 0
156 161 0
160 166 0
152 158 0
157 164 0
155 162 0
163 171 0
157 166 0
165 184 0
159 178 0
166 184 0
161 179 0
157 176 0
163 183 0
159 178 0
158 177 0
161 179 0
159 177 0
154 173 0
155 173 0
154 174 0
160 180 0
158 177 0
152 173 0
161 181 0
155 174 0
156 176 0
157 178 0
154 173 0
155 175 0
155 174 0
157 178 0
160 181 0
159 180 0
158 179 0
156 177 0
151 173 0
160 181 0
156 176 0
159 180 0
160 180 0
157 178 0
151 172 0
159 179 0
161 182 0
153 173 0
158 177 0
155 176 0
154 174 0
159 180 0
157 178 0
155 176 0
160 178 0
158 178 0
156 176 0
157 178 0
162 183 0
154 174 0
159 178 0
154 171 0
156 176 0
163 182 0
164 183 0
152 167 0
151 167 0
155 173 0
157 175 0
162 177 0
153 168 0
152 169 0
156 171 0
157 171 0
155 168 0
161 173 0
159 169 0
152 161 0
153 165 0
155 165 0
150 159 0
156 166 0
150 160 0
160 168 0
162 172 0
160 170 0
162 171 0
158 164 0
158 167 0
160 170 0
164 184 0
159 178 0
162 179 0
168 187 0
156 175 0
162 182 0
158 177 0
158 177 0
158 176 0
163 183 0
162 182 0
155 175 0
159 178 0
156 176 0
158 178 0
153 173 0
159 180 0
156 175 0
161 182 0
158 179 0
158 178 0
159 180 0
158 178 0
159 180 0
155 178 0
153 174 0
156 177 0
154 176 0
157 179 0
154 175 0
162 183 0
156 176 0
154 174 0
156 178 0
151 173 0
154 174 0
160 181 0
156 178 0
156 177 0
155 175 0
161 183 0
161 180 0
152 172 0
161 180 0
159 179 0
156 176 0
163 182 0
160 180 0
156 175 0
162 183 0
162 181 0
157 177 0
155 175 0
158 177 0
154 171 0
162 182 0
160 180 0
162 181 0
162 180 0
156 173 0
156 174 0
162 178 0
161 177 0
151 167 0
153 168 0
161 175 0
154 168 0
159 172 0
162 178 0
163 177 0
159 171 0
160 169 0
158 168 0
159 169 0
159 168 0
162 170 0
154 164 0
154 163 0
162 171 0
162 173 0
165 184 0
162 182 0
161 181 0
164 182 0
159 178 0
159 178 0
160 179 0
157 176 0
160 179 0
161 181 0
159 179 0
164 185 0
155 174 0
162 183 0
154 175 0
159 180 0
163 185 0
157 179 0
159 181 0
160 181 0
158 179 0
158 180 0
153 173 0
157 179 0
156 178 0
152 173 0
155 176 0
154 175 0
158 179 0
144 164 0
155 175 0
161 181 0
158 180 0
152 174 0
152 174 0
151 172 0
153 173 0
160 183 0
158 178 0
158 178 0
162 183 0
155 177 0
155 176 0
157 177 0
158 179 0
155 175 0
155 175 0
162 181 0
161 183 0
154 174 0
156 177 0
152 171 0
161 183 0
161 180 0
160 179 0
160 182 0
164 183 0
159 177 0
160 177 0
156 173 0
155 172 0
158 178 0
158 173 0
161 178 0
154 169 0
158 174 0
153 168 0
158 172 0
161 177 0
161 175 0
157 172 0
157 168 0
159 173 0
156 167 0
158 170 0
158 169 0
164 175 0
157 166 0
159 171 0
159 170 0
164 185 0
160 180 0
159 179 0
166 186 0
160 180 0
158 179 0
162 183 0
164 183 0
160 180 0
163 184 0
157 177 0
161 181 0
157 178 0
159 180 0
160 181 0
156 176 0
152 174 0
162 184 0
154 176 0
162 183 0
154 174 0
161 182 0
162 184 0
161 182 0
159 180 0
157 178 0
160 180 0
160 181 0
163 184 0
157 176 0
159 180 0
162 184 0
160 182 0
160 182 0
162 184 0
162 182 0
158 180 0
163 185 0
161 183 0
153 175 0
159 181 0
162 183 0
161 181 0
158 178 0
159 180 0
154 174 0
158 178 0
152 174 0
158 177 0
161 181 0
159 179 0
156 175 0
161 182 0
159 178 0
166 185 0
163 184 0
157 178 0
159 177 0
158 179 0
156 172 0
157 176 0
160 178 0
157 173 0
161 179 0
156 172 0
163 181 0
162 177 0
162 179 0
159 173 0
163 178 0
157 172 0
161 176 0
155 168 0
163 176 0
158 170 0
158 167 0
165 177 0
161 172 0
159 169 0
163 175 0
160 181 0
162 183 0
159 179 0
159 179 0
159 179 0
163 183 0
157 178 0
163 183 0
162 183 0
159 181 0
157 177 0
160 182 0
160 181 0
162 182 0
160 180 0
160 180 0
161 181 0
157 178 0
162 185 0
164 186 0
155 177 0
165 185 0
157 179 0
164 186 0
163 184 0
155 176 0
164 184 0
157 178 0
159 180 0
163 185 0
165 185 0
157 178 0
163 185 0
163 184 0
161 182 0
160 181 0
153 174 0
161 183 0
161 181 0
157 179 0
161 183 0
164 186 0
159 180 0
164 185 0
166 187 0
157 178 0
161 182 0
159 178 0
160 180 0
162 184 0
161 183 0
165 184 0
157 180 0
160 180 0
165 183 0
156 175 0
162 181 0
163 184 0
162 182 0
163 182 0
154 171 0
164 183 0
160 176 0
160 177 0
160 180 0
156 175 0
162 179 0
161 180 0
165 182 0
162 181 0
156 170 0
160 177 0
162 175 0
161 178 0
158 172 0
162 176 0
162 176 0
162 176 0
162 176 0
162 177 0
